<!-- Copyright 2000-2024 JetBrains s.r.o. and contributors. Use of this source code is governed by the Apache 2.0 license. -->
<svg width="64" height="64" viewBox="0 0 64 64" fill="none" xmlns="http://www.w3.org/2000/svg">
<g clip-path="url(#clip0_4372_11172)">
<path d="M59.9273 0H24.9606C23.8807 0 22.8445 0.4288 22.0806 1.19273L1.19273 22.08C0.4288 22.8439 0 23.8796 0 24.96V59.9273C0 62.1766 1.82342 64 4.07273 64H39.0388C40.1199 64 41.1567 63.57 41.9206 62.8055L62.8073 41.895C63.57 41.1316 63.9983 40.096 63.9983 39.0167L64 4.07273C64 1.82342 62.1766 0 59.9273 0Z" fill="url(#paint0_radial_4372_11172)"/>
<path d="M52 12H12V52H52V12Z" fill="black"/>
<path d="M33 44H17V47H33V44Z" fill="white"/>
<g transform="translate(15,15)">
  <!-- The letter S -->
  <path style="stroke:#FFF;stroke-width:0.25mm;fill:#FFF" d="M9.74 3.26 L 8.54 3.26 A 2.86 2.86 0 0 0 8.358 2.544 A 1.897 1.897 0 0 0 7.45 1.54 A 3.833 3.833 0 0 0 6.597 1.229 Q 5.903 1.06 5 1.06 A 7.239 7.239 0 0 0 4.092 1.113 Q 3.024 1.248 2.42 1.73 A 2.164 2.164 0 0 0 1.643 3.036 A 3.325 3.325 0 0 0 1.58 3.7 Q 1.58 4.293 1.756 4.715 A 1.703 1.703 0 0 0 1.87 4.94 Q 2.16 5.42 2.62 5.71 Q 3.08 6 3.6 6.17 Q 4.12 6.34 4.56 6.46 L 6.1 6.88 Q 6.68 7.04 7.36 7.28 Q 8.04 7.52 8.65 7.94 Q 9.26 8.36 9.64 9.02 A 2.712 2.712 0 0 1 9.934 9.799 Q 10.02 10.193 10.02 10.66 A 3.988 3.988 0 0 1 9.776 12.066 A 3.72 3.72 0 0 1 9.48 12.68 A 3.333 3.333 0 0 1 8.463 13.733 A 4.458 4.458 0 0 1 7.82 14.09 Q 6.7 14.6 4.96 14.6 A 9.194 9.194 0 0 1 3.615 14.508 Q 2.934 14.407 2.38 14.195 A 3.947 3.947 0 0 1 1.4 13.66 A 3.463 3.463 0 0 1 0.017 11.269 A 4.429 4.429 0 0 1 0 11.12 L 1.24 11.12 A 3.52 3.52 0 0 0 1.371 11.741 Q 1.479 12.083 1.656 12.346 A 1.868 1.868 0 0 0 1.86 12.6 Q 2.36 13.12 3.15 13.33 Q 3.915 13.533 4.896 13.54 A 9.799 9.799 0 0 0 4.96 13.54 Q 6.8 13.54 7.81 12.83 A 2.292 2.292 0 0 0 8.749 11.361 A 3.64 3.64 0 0 0 8.82 10.62 Q 8.82 9.923 8.562 9.454 A 1.628 1.628 0 0 0 8.39 9.2 A 2.752 2.752 0 0 0 7.637 8.572 A 3.477 3.477 0 0 0 7.25 8.38 Q 6.54 8.08 5.72 7.86 L 3.8 7.34 Q 2.57 6.995 1.762 6.448 A 4.205 4.205 0 0 1 1.27 6.06 A 2.697 2.697 0 0 1 0.444 4.526 A 3.951 3.951 0 0 1 0.38 3.8 A 4.088 4.088 0 0 1 0.505 2.766 A 3.242 3.242 0 0 1 0.95 1.77 Q 1.52 0.92 2.57 0.46 Q 3.587 0.014 4.97 0.001 A 8.901 8.901 0 0 1 5.06 0 A 8.027 8.027 0 0 1 6.172 0.073 Q 6.752 0.154 7.246 0.326 A 4.659 4.659 0 0 1 7.47 0.41 A 4.423 4.423 0 0 1 8.362 0.891 A 3.499 3.499 0 0 1 9.07 1.55 Q 9.66 2.28 9.74 3.26Z" fill="white"/>
</g>
<g transform="translate(27,15)">
  <!-- The letter H -->
  <path style="stroke:#FFF;stroke-width:0.25mm;fill:#FFF" d="M0 14.14 L 0 0 L 1.2 0 L 1.2 6.54 L 9.1 6.54 L 9.1 0 L 10.3 0 L 10.3 14.14 L 9.1 14.14 L 9.1 7.58 L 1.2 7.58 L 1.2 14.14 L 0 14.14Z" fill="white"/>
</g>
</g>
<defs>
<radialGradient id="paint0_radial_4372_11172" cx="0" cy="0" r="1" gradientUnits="userSpaceOnUse" gradientTransform="translate(62.25 1.75) rotate(135) scale(85.5599)">
<stop offset="0.0810525" stop-color="#BF6B25"/>
<stop offset="0.720942" stop-color="#0D467D"/>
</radialGradient>
<clipPath id="clip0_4372_11172">
<rect width="64" height="64" fill="white"/>
</clipPath>
</defs>
</svg>
