<!-- Copyright 2000-2024 JetBrains s.r.o. and contributors. Use of this source code is governed by the Apache 2.0 license. -->
<svg width="32" height="32" viewBox="0 0 32 32" fill="none" xmlns="http://www.w3.org/2000/svg" data-scaled="true">
<g clip-path="url(#clip0_4372_11170)">
<path d="M29.9636 0H12.4803C11.9404 0 11.4223 0.2144 11.0403 0.596364L0.596364 11.04C0.2144 11.422 0 11.9398 0 12.48V29.9636C0 31.0883 0.911709 32 2.03636 32H19.5194C20.0599 32 20.5783 31.785 20.9603 31.4028L31.4036 20.9475C31.785 20.5658 31.9991 20.048 31.9991 19.5084L32 2.03636C32 0.911709 31.0883 0 29.9636 0Z" fill="url(#paint0_linear_4372_11170)"/>
<path d="M26 6H6V26H26V6Z" fill="black"/>
  <g transform="translate(10,10)">
    <g transform="scale(1.5,1.5)">
      <!-- The letter S -->
      <path style="stroke:#FFF;stroke-width:0.10mm;fill:#FFF" d="M3.409 1.141 L 2.989 1.141 A 1.001 1.001 0 0 0 2.925 0.89 A 0.664 0.664 0 0 0 2.607 0.539 Q 2.357 0.41 1.986 0.38 A 2.941 2.941 0 0 0 1.75 0.371 A 2.534 2.534 0 0 0 1.432 0.39 Q 1.058 0.437 0.847 0.606 Q 0.553 0.84 0.553 1.295 Q 0.553 1.561 0.655 1.729 Q 0.756 1.897 0.917 1.999 Q 1.078 2.1 1.26 2.16 Q 1.442 2.219 1.596 2.261 L 2.135 2.408 Q 2.338 2.464 2.576 2.548 Q 2.814 2.632 3.028 2.779 Q 3.241 2.926 3.374 3.157 A 0.949 0.949 0 0 1 3.477 3.43 Q 3.507 3.568 3.507 3.731 A 1.396 1.396 0 0 1 3.422 4.223 A 1.302 1.302 0 0 1 3.318 4.438 A 1.167 1.167 0 0 1 2.962 4.807 A 1.56 1.56 0 0 1 2.737 4.932 Q 2.43 5.071 1.99 5.102 A 3.698 3.698 0 0 1 1.736 5.11 A 3.218 3.218 0 0 1 1.265 5.078 Q 1.027 5.043 0.833 4.968 A 1.382 1.382 0 0 1 0.49 4.781 Q 0.056 4.452 0 3.892 L 0.434 3.892 Q 0.467 4.153 0.58 4.321 A 0.654 0.654 0 0 0 0.651 4.41 A 0.902 0.902 0 0 0 0.971 4.622 A 1.146 1.146 0 0 0 1.102 4.666 Q 1.379 4.739 1.736 4.739 A 2.697 2.697 0 0 0 2.11 4.715 Q 2.49 4.661 2.734 4.491 A 0.802 0.802 0 0 0 3.062 3.976 A 1.274 1.274 0 0 0 3.087 3.717 A 1.065 1.065 0 0 0 3.069 3.516 Q 3.047 3.4 2.997 3.309 A 0.57 0.57 0 0 0 2.937 3.22 Q 2.786 3.038 2.538 2.933 A 3.967 3.967 0 0 0 2.143 2.791 A 4.595 4.595 0 0 0 2.002 2.751 L 1.33 2.569 A 3.031 3.031 0 0 1 0.951 2.437 Q 0.764 2.357 0.617 2.257 A 1.472 1.472 0 0 1 0.444 2.121 A 0.944 0.944 0 0 1 0.155 1.584 A 1.383 1.383 0 0 1 0.133 1.33 Q 0.133 0.917 0.333 0.62 A 1.229 1.229 0 0 1 0.747 0.238 A 1.549 1.549 0 0 1 0.9 0.161 Q 1.267 0 1.771 0 A 2.809 2.809 0 0 1 2.16 0.026 Q 2.41 0.061 2.615 0.144 A 1.548 1.548 0 0 1 2.927 0.312 A 1.225 1.225 0 0 1 3.174 0.543 Q 3.381 0.798 3.409 1.141Z" fill="white"/>
    </g>
  </g>
  <g transform="translate(16.5,10)">
    <g transform="scale(1.5,1.5)">
      <!-- The letter H -->
      <path style="stroke:#FFF;stroke-width:0.10mm;fill:#FFF" d="M0 4.949 L 0 0 L 0.42 0 L 0.42 2.289 L 3.185 2.289 L 3.185 0 L 3.605 0 L 3.605 4.949 L 3.185 4.949 L 3.185 2.653 L 0.42 2.653 L 0.42 4.949 L 0 4.949Z" fill="white"/>
    </g>
  </g>
<path d="M16 22H9V23H16V22Z" fill="white"/>
</g>
<defs>
<linearGradient id="paint0_linear_4372_11170" x1="0.596364" y1="31.4033" x2="31.4033" y2="0.596364" gradientUnits="userSpaceOnUse">
<stop offset="0.21" stop-color="#0D467D"/>
<stop offset="0.7" stop-color="#BF6B25"/>
</linearGradient>
<clipPath id="clip0_4372_11170">
<rect width="32" height="32" fill="white"/>
</clipPath>
</defs>
</svg>
