<?xml version="1.0" encoding="utf-8"?>
<!-- Copyright 2000-2025 JetBrains s.r.o. and contributors. Use of this source code is governed by the Apache 2.0 license. -->
<svg width="16" height="16" viewBox="0 0 50 50" fill="none" xmlns="http://www.w3.org/2000/svg">
  <rect width="50" height="50" rx="4.013" clip-path="url(#clip0_10_243)" style="fill: url(&quot;#gradient-0&quot;);" ry="4.013"/>
  <path d="M9 9H41V41H9V9Z" clip-path="url(#clip0_10_243)" fill="black"/>
  <path d="M18.8 31.192C18.0213 31.192 17.3307 31.0507 16.728 30.768C16.1253 30.48 15.6533 30.08 15.312 29.568C14.976 29.0507 14.808 28.4587 14.808 27.792H16.448C16.448 28.176 16.5467 28.5173 16.744 28.816C16.9467 29.1147 17.2267 29.3493 17.584 29.52C17.9467 29.6853 18.36 29.768 18.824 29.768C19.2773 29.768 19.6773 29.6907 20.024 29.536C20.3707 29.3813 20.6373 29.1653 20.824 28.888C21.016 28.6107 21.112 28.2907 21.112 27.928C21.112 27.4693 20.9733 27.0773 20.696 26.752C20.424 26.4213 20.0587 26.216 19.6 26.136L17.744 25.824C17.2053 25.728 16.7333 25.5387 16.328 25.256C15.928 24.968 15.6213 24.6107 15.408 24.184C15.1947 23.752 15.088 23.2827 15.088 22.776C15.088 22.1733 15.2453 21.632 15.56 21.152C15.8747 20.672 16.312 20.296 16.872 20.024C17.4373 19.7467 18.072 19.608 18.776 19.608C19.5013 19.608 20.1467 19.744 20.712 20.016C21.2773 20.2827 21.7173 20.656 22.032 21.136C22.3467 21.6107 22.504 22.1547 22.504 22.768H20.864C20.864 22.432 20.776 22.1333 20.6 21.872C20.4293 21.6053 20.1867 21.4 19.872 21.256C19.5627 21.1067 19.2053 21.032 18.8 21.032C18.3893 21.032 18.0267 21.104 17.712 21.248C17.4027 21.3867 17.16 21.584 16.984 21.84C16.8133 22.096 16.728 22.3947 16.728 22.736C16.728 23.136 16.856 23.48 17.112 23.768C17.368 24.056 17.7067 24.2373 18.128 24.312L19.984 24.624C20.5227 24.72 21.0027 24.9253 21.424 25.24C21.8507 25.5547 22.1787 25.944 22.408 26.408C22.6427 26.872 22.76 27.36 22.76 27.872C22.76 28.496 22.592 29.0613 22.256 29.568C21.9253 30.0693 21.4587 30.4667 20.856 30.76C20.2533 31.048 19.568 31.192 18.8 31.192ZM25.2246 19.8H26.8406V24.528H32.4006V19.8H34.0166V31H32.4006V26.032H26.8406V31H25.2246V19.8Z" clip-path="url(#clip0_10_243)" fill="white"/>
  <defs>
    <linearGradient gradientUnits="userSpaceOnUse" x1="23.92" y1="-3.455" x2="23.92" y2="46.545" id="gradient-0" gradientTransform="matrix(0.708487, 0.705725, -0.981858, 0.985705, 29.023391, -12.946737)">
      <stop offset="0.21" stop-color="#BF6B25"/>
      <stop offset="0.7" stop-color="#0D467D"/>
    </linearGradient>
  </defs>
  <clipPath id="clip0_10_243">
    <rect width="50" height="50" rx="4" fill="white"/>
  </clipPath>
</svg>
